STARTFONT 2.1
FONT --Los Angeles-Regular-R-Normal--28-240-84-84-P-134-APPLE-ROMAN
SIZE 24 84 84
FONTBOUNDINGBOX 20 28 0 -6
METRICSSET 2
STARTPROPERTIES 19
FONT_ASCENT 22
FONT_DESCENT 6
PIXEL_SIZE 28
RESOLUTION_X 84
RESOLUTION_Y 84
POINT_SIZE 240
FACE_NAME "Los Angeles Regular 24"
FOUNDRY ""
FAMILY_NAME "Los Angeles"
WEIGHT_NAME "Regular"
RELATIVE_WEIGHT 50
SLANT "R"
SPACING "P"
SETWIDTH_NAME "Normal"
RELATIVE_SETWIDTH 50
ADD_STYLE_NAME ""
AVERAGE_WIDTH 134
CHARSET_REGISTRY "APPLE"
CHARSET_ENCODING "ROMAN"
ENDPROPERTIES
CHARS 158
STARTCHAR char00
ENCODING 0
SWIDTH 0 0
DWIDTH 0 0
BBX 0 0 0 -6
VVECTOR 0 -6
SWIDTH1 0 0
DWIDTH1 0 0
BITMAP 
ENDCHAR
STARTCHAR char01
ENCODING 1
SWIDTH 71 0
DWIDTH 2 0
BBX 0 0 2 -6
VVECTOR 2 -6
SWIDTH1 0 0
DWIDTH1 0 0
BITMAP 
ENDCHAR
STARTCHAR char02
ENCODING 2
SWIDTH 0 0
DWIDTH 0 0
BBX 0 0 0 -6
VVECTOR 0 -6
SWIDTH1 0 0
DWIDTH1 0 0
BITMAP 
ENDCHAR
STARTCHAR char03
ENCODING 3
SWIDTH 0 0
DWIDTH 0 0
BBX 0 0 0 -6
VVECTOR 0 -6
SWIDTH1 0 0
DWIDTH1 0 0
BITMAP 
ENDCHAR
STARTCHAR char04
ENCODING 4
SWIDTH 0 0
DWIDTH 0 0
BBX 0 0 0 -6
VVECTOR 0 -6
SWIDTH1 0 0
DWIDTH1 0 0
BITMAP 
ENDCHAR
STARTCHAR char05
ENCODING 5
SWIDTH 0 0
DWIDTH 0 0
BBX 0 0 0 -6
VVECTOR 0 -6
SWIDTH1 0 0
DWIDTH1 0 0
BITMAP 
ENDCHAR
STARTCHAR char09
ENCODING 9
SWIDTH 0 0
DWIDTH 0 0
BBX 0 0 0 -6
VVECTOR 0 -6
SWIDTH1 0 0
DWIDTH1 0 0
BITMAP 
ENDCHAR
STARTCHAR char0D
ENCODING 13
SWIDTH 0 0
DWIDTH 0 0
BBX 0 0 0 -6
VVECTOR 0 -6
SWIDTH1 0 0
DWIDTH1 0 0
BITMAP 
ENDCHAR
STARTCHAR space
ENCODING 32
SWIDTH 286 0
DWIDTH 8 0
BBX 0 0 8 -6
VVECTOR 8 -6
SWIDTH1 0 0
DWIDTH1 0 0
BITMAP 
ENDCHAR
STARTCHAR exclam
ENCODING 33
SWIDTH 357 0
DWIDTH 10 0
BBX 4 17 3 0
VVECTOR 5 22
SWIDTH1 0 -1000
DWIDTH1 0 -28
BITMAP 
10
10
10
10
20
20
20
20
20
40
40
40
40
00
00
80
80
ENDCHAR
STARTCHAR quotedbl
ENCODING 34
SWIDTH 357 0
DWIDTH 10 0
BBX 7 5 2 14
VVECTOR 6 22
SWIDTH1 0 -1000
DWIDTH1 0 -28
BITMAP 
42
44
84
84
88
ENDCHAR
STARTCHAR numbersign
ENCODING 35
SWIDTH 643 0
DWIDTH 18 0
BBX 15 12 1 7
VVECTOR 9 22
SWIDTH1 0 -1000
DWIDTH1 0 -28
BITMAP 
0008
0210
0210
3FFE
0420
0420
0840
0840
FFF0
1080
2080
2000
ENDCHAR
STARTCHAR dollar
ENCODING 36
SWIDTH 500 0
DWIDTH 14 0
BBX 11 22 1 -2
VVECTOR 7 22
SWIDTH1 0 -1000
DWIDTH1 0 -28
BITMAP 
0080
0080
0F80
1140
2120
2100
2100
1200
0A00
0600
0300
0280
0240
0240
0220
0420
8420
4420
3440
0F80
0400
0400
ENDCHAR
STARTCHAR percent
ENCODING 37
SWIDTH 643 0
DWIDTH 18 0
BBX 15 18 2 0
VVECTOR 10 22
SWIDTH1 0 -1000
DWIDTH1 0 -28
BITMAP 
1FFC
2202
4104
8108
8110
8220
4440
3880
0100
0200
0470
0888
1104
2204
4204
4208
8110
80E0
ENDCHAR
STARTCHAR ampersand
ENCODING 38
SWIDTH 643 0
DWIDTH 18 0
BBX 16 19 1 0
VVECTOR 9 22
SWIDTH1 0 -1000
DWIDTH1 0 -28
BITMAP 
0F00
1080
2080
2080
2100
2200
1400
0800
1800
2400
4200
4100
8088
8050
8020
8050
8088
4306
3C01
ENDCHAR
STARTCHAR quotesingle
ENCODING 39
SWIDTH 214 0
DWIDTH 6 0
BBX 3 6 2 13
VVECTOR 4 22
SWIDTH1 0 -1000
DWIDTH1 0 -28
BITMAP 
20
20
20
40
40
80
ENDCHAR
STARTCHAR parenleft
ENCODING 40
SWIDTH 357 0
DWIDTH 10 0
BBX 6 23 2 -3
VVECTOR 5 22
SWIDTH1 0 -1000
DWIDTH1 0 -28
BITMAP 
04
08
10
20
20
40
40
40
40
80
80
80
80
80
80
80
80
80
40
40
20
10
08
ENDCHAR
STARTCHAR parenright
ENCODING 41
SWIDTH 357 0
DWIDTH 10 0
BBX 6 23 2 -3
VVECTOR 5 22
SWIDTH1 0 -1000
DWIDTH1 0 -28
BITMAP 
20
10
10
08
08
04
04
04
04
04
04
04
04
04
04
04
08
08
10
10
20
40
80
ENDCHAR
STARTCHAR asterisk
ENCODING 42
SWIDTH 571 0
DWIDTH 16 0
BBX 12 11 2 7
VVECTOR 8 22
SWIDTH1 0 -1000
DWIDTH1 0 -28
BITMAP 
2000
1040
0880
0500
0200
FFF0
0500
0880
1040
2020
0010
ENDCHAR
STARTCHAR plus
ENCODING 43
SWIDTH 500 0
DWIDTH 14 0
BBX 9 9 2 5
VVECTOR 7 22
SWIDTH1 0 -1000
DWIDTH1 0 -28
BITMAP 
0800
0800
0800
0800
FF80
0800
0800
0800
0800
ENDCHAR
STARTCHAR comma
ENCODING 44
SWIDTH 286 0
DWIDTH 8 0
BBX 4 6 2 -4
VVECTOR 4 22
SWIDTH1 0 -1000
DWIDTH1 0 -28
BITMAP 
10
10
20
20
40
80
ENDCHAR
STARTCHAR hyphen
ENCODING 45
SWIDTH 500 0
DWIDTH 14 0
BBX 10 1 2 9
VVECTOR 7 22
SWIDTH1 0 -1000
DWIDTH1 0 -28
BITMAP 
FFC0
ENDCHAR
STARTCHAR period
ENCODING 46
SWIDTH 214 0
DWIDTH 6 0
BBX 1 2 2 0
VVECTOR 3 22
SWIDTH1 0 -1000
DWIDTH1 0 -28
BITMAP 
80
80
ENDCHAR
STARTCHAR slash
ENCODING 47
SWIDTH 500 0
DWIDTH 14 0
BBX 9 19 2 0
VVECTOR 7 22
SWIDTH1 0 -1000
DWIDTH1 0 -28
BITMAP 
0080
0100
0100
0200
0400
0400
0400
0800
0800
0800
1000
1000
2000
2000
2000
4000
4000
8000
8000
ENDCHAR
STARTCHAR zero
ENCODING 48
SWIDTH 571 0
DWIDTH 16 0
BBX 12 19 2 0
VVECTOR 8 22
SWIDTH1 0 -1000
DWIDTH1 0 -28
BITMAP 
0380
0C40
1020
2020
2010
4010
4010
8010
8010
8010
8010
8010
8010
8010
8020
4020
4040
2180
1E00
ENDCHAR
STARTCHAR one
ENCODING 49
SWIDTH 571 0
DWIDTH 16 0
BBX 3 18 6 0
VVECTOR 8 22
SWIDTH1 0 -1000
DWIDTH1 0 -28
BITMAP 
20
20
20
20
20
20
40
40
40
40
40
40
40
80
80
80
80
80
ENDCHAR
STARTCHAR two
ENCODING 50
SWIDTH 571 0
DWIDTH 16 0
BBX 12 18 2 0
VVECTOR 8 22
SWIDTH1 0 -1000
DWIDTH1 0 -28
BITMAP 
0FC0
3020
4010
8010
0010
0010
0020
0040
0080
0300
0400
0800
1000
2000
4000
8000
8000
7FE0
ENDCHAR
STARTCHAR three
ENCODING 51
SWIDTH 571 0
DWIDTH 16 0
BBX 12 18 2 0
VVECTOR 8 22
SWIDTH1 0 -1000
DWIDTH1 0 -28
BITMAP 
03C0
0C20
1010
0010
0020
00C0
0300
00C0
0020
0020
0010
0010
0010
8010
8010
4020
30C0
0F00
ENDCHAR
STARTCHAR four
ENCODING 52
SWIDTH 571 0
DWIDTH 16 0
BBX 12 19 2 -1
VVECTOR 8 22
SWIDTH1 0 -1000
DWIDTH1 0 -28
BITMAP 
0800
0800
1010
1010
2010
2020
4020
4020
4040
8040
8040
7FF0
0040
0040
0080
0080
0080
0080
0080
ENDCHAR
STARTCHAR five
ENCODING 53
SWIDTH 571 0
DWIDTH 16 0
BBX 12 18 2 0
VVECTOR 8 22
SWIDTH1 0 -1000
DWIDTH1 0 -28
BITMAP 
1FF0
2000
4000
4000
8000
8000
7E00
0180
0040
0040
0020
0020
0020
0020
0040
8040
6080
1F00
ENDCHAR
STARTCHAR six
ENCODING 54
SWIDTH 571 0
DWIDTH 16 0
BBX 12 19 2 0
VVECTOR 8 22
SWIDTH1 0 -1000
DWIDTH1 0 -28
BITMAP 
0800
1000
2000
2000
4000
4000
8000
8780
9840
A020
8020
8010
8010
8010
8020
4020
4040
2080
1F00
ENDCHAR
STARTCHAR seven
ENCODING 55
SWIDTH 571 0
DWIDTH 16 0
BBX 12 18 2 0
VVECTOR 8 22
SWIDTH1 0 -1000
DWIDTH1 0 -28
BITMAP 
0FE0
7010
8010
0010
0020
0020
0040
0040
0080
0080
0100
0100
0200
0200
0200
0400
0400
0400
ENDCHAR
STARTCHAR eight
ENCODING 56
SWIDTH 571 0
DWIDTH 16 0
BBX 12 18 2 0
VVECTOR 8 22
SWIDTH1 0 -1000
DWIDTH1 0 -28
BITMAP 
0F00
1080
2040
2040
2040
2080
1300
0C00
1300
20C0
4020
8010
8010
8010
8010
4020
3040
0F80
ENDCHAR
STARTCHAR nine
ENCODING 57
SWIDTH 571 0
DWIDTH 16 0
BBX 12 19 2 -1
VVECTOR 8 22
SWIDTH1 0 -1000
DWIDTH1 0 -28
BITMAP 
0F80
3040
4020
8020
8010
8010
8010
8010
8010
4010
3010
0F20
0020
0040
0040
0080
0080
0100
0200
ENDCHAR
STARTCHAR colon
ENCODING 58
SWIDTH 214 0
DWIDTH 6 0
BBX 2 12 2 0
VVECTOR 3 22
SWIDTH1 0 -1000
DWIDTH1 0 -28
BITMAP 
40
40
00
00
00
00
00
00
00
00
80
80
ENDCHAR
STARTCHAR semicolon
ENCODING 59
SWIDTH 286 0
DWIDTH 8 0
BBX 4 14 2 -3
VVECTOR 4 22
SWIDTH1 0 -1000
DWIDTH1 0 -28
BITMAP 
10
10
00
00
00
00
00
00
00
20
20
40
40
80
ENDCHAR
STARTCHAR less
ENCODING 60
SWIDTH 429 0
DWIDTH 12 0
BBX 7 13 3 0
VVECTOR 7 22
SWIDTH1 0 -1000
DWIDTH1 0 -28
BITMAP 
02
04
08
10
20
40
80
40
20
10
08
04
02
ENDCHAR
STARTCHAR equal
ENCODING 61
SWIDTH 500 0
DWIDTH 14 0
BBX 11 5 1 4
VVECTOR 7 22
SWIDTH1 0 -1000
DWIDTH1 0 -28
BITMAP 
7FE0
0000
0000
0000
FFC0
ENDCHAR
STARTCHAR greater
ENCODING 62
SWIDTH 429 0
DWIDTH 12 0
BBX 7 13 2 0
VVECTOR 6 22
SWIDTH1 0 -1000
DWIDTH1 0 -28
BITMAP 
80
40
20
10
08
04
02
04
08
10
20
40
80
ENDCHAR
STARTCHAR question
ENCODING 63
SWIDTH 571 0
DWIDTH 16 0
BBX 12 18 2 0
VVECTOR 8 22
SWIDTH1 0 -1000
DWIDTH1 0 -28
BITMAP 
0FC0
3020
4010
8010
0010
0020
0040
0080
0100
0200
0400
0400
0800
0800
0000
0000
1000
1000
ENDCHAR
STARTCHAR at
ENCODING 64
SWIDTH 714 0
DWIDTH 20 0
BBX 15 16 3 0
VVECTOR 11 22
SWIDTH1 0 -1000
DWIDTH1 0 -28
BITMAP 
03E0
0C18
1004
2002
41C2
4222
8422
8822
8864
8898
8700
8000
4000
4010
3060
0F80
ENDCHAR
STARTCHAR A
ENCODING 65
SWIDTH 643 0
DWIDTH 18 0
BBX 16 20 1 -1
VVECTOR 9 22
SWIDTH1 0 -1000
DWIDTH1 0 -28
BITMAP 
0001
0003
0005
0009
0011
0022
0042
0082
0104
0104
0204
0407
083C
13C4
7C04
2008
2008
4008
4008
8000
ENDCHAR
STARTCHAR B
ENCODING 66
SWIDTH 643 0
DWIDTH 18 0
BBX 14 20 2 -2
VVECTOR 9 22
SWIDTH1 0 -1000
DWIDTH1 0 -28
BITMAP 
0100
07F0
1A08
2204
0404
0404
0808
0810
0860
1190
1008
1004
2004
2004
2004
4008
4008
4030
9FC0
8000
ENDCHAR
STARTCHAR C
ENCODING 67
SWIDTH 571 0
DWIDTH 16 0
BBX 12 18 2 0
VVECTOR 8 22
SWIDTH1 0 -1000
DWIDTH1 0 -28
BITMAP 
03C0
0C20
1010
2010
4010
4020
8000
8000
8000
8000
8000
8000
8000
8000
4000
4020
3040
0F80
ENDCHAR
STARTCHAR D
ENCODING 68
SWIDTH 571 0
DWIDTH 16 0
BBX 13 20 1 -1
VVECTOR 8 22
SWIDTH1 0 -1000
DWIDTH1 0 -28
BITMAP 
0400
3F00
08C0
0820
0810
1010
1008
1008
1008
2008
2008
2008
2008
4008
4010
4010
4020
80C0
9F00
8000
ENDCHAR
STARTCHAR E
ENCODING 69
SWIDTH 500 0
DWIDTH 14 0
BBX 10 18 2 0
VVECTOR 7 22
SWIDTH1 0 -1000
DWIDTH1 0 -28
BITMAP 
03C0
0C00
1000
1000
2000
2000
2000
4000
4780
7800
C000
4000
8000
8000
8000
8000
4000
3F80
ENDCHAR
STARTCHAR F
ENCODING 70
SWIDTH 500 0
DWIDTH 14 0
BBX 12 18 1 0
VVECTOR 7 22
SWIDTH1 0 -1000
DWIDTH1 0 -28
BITMAP 
01F0
0600
0800
0800
1000
1000
1000
2000
23C0
3C00
E000
2000
2000
4000
4000
4000
4000
4000
ENDCHAR
STARTCHAR G
ENCODING 71
SWIDTH 571 0
DWIDTH 16 0
BBX 13 18 2 0
VVECTOR 9 22
SWIDTH1 0 -1000
DWIDTH1 0 -28
BITMAP 
07C0
1820
2020
2000
4000
4000
8000
8000
8018
80E0
8310
8010
8010
8010
4020
4020
3040
0F80
ENDCHAR
STARTCHAR H
ENCODING 72
SWIDTH 607 0
DWIDTH 17 0
BBX 15 18 1 0
VVECTOR 9 22
SWIDTH1 0 -1000
DWIDTH1 0 -28
BITMAP 
0802
0802
0802
1002
1002
1004
1004
1004
20FE
3F04
E004
2004
2008
4008
4008
4008
4008
4008
ENDCHAR
STARTCHAR I
ENCODING 73
SWIDTH 429 0
DWIDTH 12 0
BBX 4 18 4 0
VVECTOR 6 22
SWIDTH1 0 -1000
DWIDTH1 0 -28
BITMAP 
10
10
10
20
20
20
20
20
40
40
40
40
40
80
80
80
80
80
ENDCHAR
STARTCHAR J
ENCODING 74
SWIDTH 500 0
DWIDTH 14 0
BBX 14 18 0 0
VVECTOR 7 22
SWIDTH1 0 -1000
DWIDTH1 0 -28
BITMAP 
001C
00E0
0320
0420
0020
0020
0040
0040
0040
0040
2080
4080
4080
8080
8100
8100
4200
3C00
ENDCHAR
STARTCHAR K
ENCODING 75
SWIDTH 571 0
DWIDTH 16 0
BBX 13 18 1 0
VVECTOR 8 22
SWIDTH1 0 -1000
DWIDTH1 0 -28
BITMAP 
0800
1008
1030
2040
2080
2300
2400
4800
5000
5000
4800
4400
4200
8100
8080
8040
8030
8008
ENDCHAR
STARTCHAR L
ENCODING 76
SWIDTH 500 0
DWIDTH 14 0
BBX 9 18 2 0
VVECTOR 7 22
SWIDTH1 0 -1000
DWIDTH1 0 -28
BITMAP 
0800
0800
1000
1000
1000
2000
2000
2000
4000
4000
4000
4000
8000
8000
8000
8000
4000
3F80
ENDCHAR
STARTCHAR M
ENCODING 77
SWIDTH 786 0
DWIDTH 22 0
BBX 18 19 2 0
VVECTOR 11 22
SWIDTH1 0 -1000
DWIDTH1 0 -28
BITMAP 
008000
018040
0280C0
028140
048240
048440
088440
088840
109040
109080
20A080
20A080
20C080
40C080
408100
408100
800100
800100
800000
ENDCHAR
STARTCHAR N
ENCODING 78
SWIDTH 714 0
DWIDTH 20 0
BBX 16 18 3 -1
VVECTOR 11 22
SWIDTH1 0 -1000
DWIDTH1 0 -28
BITMAP 
0801
1402
1402
2202
2204
2204
4104
4104
4104
4088
4088
8088
8048
8048
8028
8028
8010
8000
ENDCHAR
STARTCHAR O
ENCODING 79
SWIDTH 571 0
DWIDTH 16 0
BBX 13 18 1 0
VVECTOR 8 22
SWIDTH1 0 -1000
DWIDTH1 0 -28
BITMAP 
03C0
0C20
1010
2010
2008
4008
4008
8008
8008
8008
8008
8008
8010
8010
4020
4020
30C0
0F00
ENDCHAR
STARTCHAR P
ENCODING 80
SWIDTH 571 0
DWIDTH 16 0
BBX 13 18 1 0
VVECTOR 8 22
SWIDTH1 0 -1000
DWIDTH1 0 -28
BITMAP 
0780
0860
1010
1008
1008
2008
2008
2008
2010
4010
4020
41C0
4E00
8000
8000
8000
8000
8000
ENDCHAR
STARTCHAR Q
ENCODING 81
SWIDTH 571 0
DWIDTH 16 0
BBX 13 19 1 -1
VVECTOR 8 22
SWIDTH1 0 -1000
DWIDTH1 0 -28
BITMAP 
03C0
0C20
1010
2010
2008
4008
4008
8008
8008
8008
8008
8008
8010
8010
4220
4120
30C0
0F20
0010
ENDCHAR
STARTCHAR R
ENCODING 82
SWIDTH 571 0
DWIDTH 16 0
BBX 13 19 1 -1
VVECTOR 8 22
SWIDTH1 0 -1000
DWIDTH1 0 -28
BITMAP 
03C0
0420
0810
1008
1008
2008
2008
2010
2060
4780
4200
4100
4080
8080
8040
8020
8020
8010
0008
ENDCHAR
STARTCHAR S
ENCODING 83
SWIDTH 571 0
DWIDTH 16 0
BBX 13 18 1 0
VVECTOR 8 22
SWIDTH1 0 -1000
DWIDTH1 0 -28
BITMAP 
07E0
1810
2008
4008
4030
4000
3000
0F00
00C0
0020
0010
0008
8008
8008
4008
2010
1820
07C0
ENDCHAR
STARTCHAR T
ENCODING 84
SWIDTH 571 0
DWIDTH 16 0
BBX 14 18 1 0
VVECTOR 8 22
SWIDTH1 0 -1000
DWIDTH1 0 -28
BITMAP 
07FC
3880
C080
0080
0080
0080
0100
0100
0100
0100
0200
0200
0200
0200
0200
0400
0400
0400
ENDCHAR
STARTCHAR U
ENCODING 85
SWIDTH 643 0
DWIDTH 18 0
BBX 14 19 2 0
VVECTOR 9 22
SWIDTH1 0 -1000
DWIDTH1 0 -28
BITMAP 
1000
2004
2004
4004
4004
4008
4008
8008
8008
8008
8008
8010
8010
8010
8010
4020
4020
30C0
0F00
ENDCHAR
STARTCHAR V
ENCODING 86
SWIDTH 643 0
DWIDTH 18 0
BBX 13 18 3 0
VVECTOR 10 22
SWIDTH1 0 -1000
DWIDTH1 0 -28
BITMAP 
8008
8010
8010
4020
4020
4020
4040
4040
4040
2080
2080
2100
2100
2200
1400
1400
1800
1000
ENDCHAR
STARTCHAR W
ENCODING 87
SWIDTH 786 0
DWIDTH 22 0
BBX 18 18 2 0
VVECTOR 11 22
SWIDTH1 0 -1000
DWIDTH1 0 -28
BITMAP 
800040
800040
808080
808080
818100
818100
828200
828200
828400
448400
448400
448800
444800
485000
285000
285000
102000
102000
ENDCHAR
STARTCHAR X
ENCODING 88
SWIDTH 500 0
DWIDTH 14 0
BBX 13 20 0 -1
VVECTOR 7 22
SWIDTH1 0 -1000
DWIDTH1 0 -28
BITMAP 
1008
1010
1020
0840
0840
0880
0500
0500
0200
0200
0500
0880
1080
1040
2020
4020
4010
8010
8008
0008
ENDCHAR
STARTCHAR Y
ENCODING 89
SWIDTH 500 0
DWIDTH 14 0
BBX 12 18 1 0
VVECTOR 7 22
SWIDTH1 0 -1000
DWIDTH1 0 -28
BITMAP 
0010
8010
8020
4020
4040
2080
2080
1100
0900
0A00
0400
0400
0400
0400
0400
0400
0400
0400
ENDCHAR
STARTCHAR Z
ENCODING 90
SWIDTH 500 0
DWIDTH 14 0
BBX 11 19 2 -1
VVECTOR 8 22
SWIDTH1 0 -1000
DWIDTH1 0 -28
BITMAP 
0780
3840
C080
0080
0100
0200
0200
0400
0400
0800
0800
1000
2000
2000
4000
4000
8060
8780
7800
ENDCHAR
STARTCHAR bracketleft
ENCODING 91
SWIDTH 429 0
DWIDTH 12 0
BBX 7 21 3 -2
VVECTOR 7 22
SWIDTH1 0 -1000
DWIDTH1 0 -28
BITMAP 
0E
10
10
10
20
20
20
20
20
40
40
40
40
40
80
80
80
80
80
80
70
ENDCHAR
STARTCHAR backslash
ENCODING 92
SWIDTH 500 0
DWIDTH 14 0
BBX 5 20 4 -1
VVECTOR 7 22
SWIDTH1 0 -1000
DWIDTH1 0 -28
BITMAP 
80
80
80
80
40
40
40
40
20
20
20
20
10
10
10
10
08
08
08
08
ENDCHAR
STARTCHAR bracketright
ENCODING 93
SWIDTH 429 0
DWIDTH 12 0
BBX 8 21 2 -2
VVECTOR 6 22
SWIDTH1 0 -1000
DWIDTH1 0 -28
BITMAP 
1E
01
01
01
02
02
02
02
02
04
04
04
04
04
08
08
08
08
08
10
E0
ENDCHAR
STARTCHAR asciicircum
ENCODING 94
SWIDTH 286 0
DWIDTH 8 0
BBX 5 3 2 15
VVECTOR 5 22
SWIDTH1 0 -1000
DWIDTH1 0 -28
BITMAP 
20
50
88
ENDCHAR
STARTCHAR underscore
ENCODING 95
SWIDTH 571 0
DWIDTH 16 0
BBX 16 1 0 0
VVECTOR 8 22
SWIDTH1 0 -1000
DWIDTH1 0 -28
BITMAP 
FFFF
ENDCHAR
STARTCHAR char60
ENCODING 96
SWIDTH 0 0
DWIDTH 0 0
BBX 0 0 0 -6
VVECTOR 0 -6
SWIDTH1 0 0
DWIDTH1 0 0
BITMAP 
ENDCHAR
STARTCHAR a
ENCODING 97
SWIDTH 571 0
DWIDTH 16 0
BBX 13 14 2 0
VVECTOR 9 22
SWIDTH1 0 -1000
DWIDTH1 0 -28
BITMAP 
03C0
0C08
1008
2010
4010
4010
8020
8020
8060
8060
80A0
4120
4620
3810
ENDCHAR
STARTCHAR b
ENCODING 98
SWIDTH 571 0
DWIDTH 16 0
BBX 12 18 2 0
VVECTOR 8 22
SWIDTH1 0 -1000
DWIDTH1 0 -28
BITMAP 
1000
1000
1000
2000
2000
2780
2840
3020
2010
2010
4010
4010
4010
4020
8020
8040
9080
8F00
ENDCHAR
STARTCHAR c
ENCODING 99
SWIDTH 500 0
DWIDTH 14 0
BBX 10 14 2 0
VVECTOR 7 22
SWIDTH1 0 -1000
DWIDTH1 0 -28
BITMAP 
0700
1880
2040
4040
4080
8000
8000
8000
8000
8000
8000
8100
4200
3C00
ENDCHAR
STARTCHAR d
ENCODING 100
SWIDTH 500 0
DWIDTH 14 0
BBX 13 18 1 0
VVECTOR 8 22
SWIDTH1 0 -1000
DWIDTH1 0 -28
BITMAP 
0008
0008
0010
0010
0010
0390
0C60
1020
2020
4020
4020
8020
8020
8040
8040
4140
4240
3C40
ENDCHAR
STARTCHAR e
ENCODING 101
SWIDTH 500 0
DWIDTH 14 0
BBX 11 14 1 0
VVECTOR 7 22
SWIDTH1 0 -1000
DWIDTH1 0 -28
BITMAP 
0F80
1040
2020
2020
4040
4180
4E00
F000
4000
4000
4000
4040
2180
1E00
ENDCHAR
STARTCHAR f
ENCODING 102
SWIDTH 429 0
DWIDTH 12 0
BBX 10 19 2 0
VVECTOR 7 22
SWIDTH1 0 -1000
DWIDTH1 0 -28
BITMAP 
01C0
0200
0400
0400
0800
0800
1F00
6800
8800
1000
1000
1000
1000
1000
2000
2000
2000
2000
2000
ENDCHAR
STARTCHAR g
ENCODING 103
SWIDTH 500 0
DWIDTH 14 0
BBX 10 19 2 -6
VVECTOR 7 22
SWIDTH1 0 -1000
DWIDTH1 0 -28
BITMAP 
0380
0C40
1000
2000
4040
4040
8040
8040
80C0
80C0
8140
4240
3C80
0080
0080
0100
0100
4200
3C00
ENDCHAR
STARTCHAR h
ENCODING 104
SWIDTH 500 0
DWIDTH 14 0
BBX 10 19 2 0
VVECTOR 7 22
SWIDTH1 0 -1000
DWIDTH1 0 -28
BITMAP 
1000
2000
2000
4000
4000
4000
4700
8880
9040
9040
A040
A040
A040
C040
C080
C080
8080
8100
8100
ENDCHAR
STARTCHAR i
ENCODING 105
SWIDTH 286 0
DWIDTH 8 0
BBX 4 18 2 0
VVECTOR 4 22
SWIDTH1 0 -1000
DWIDTH1 0 -28
BITMAP 
10
10
00
00
20
20
20
20
40
40
40
40
40
80
80
80
80
80
ENDCHAR
STARTCHAR j
ENCODING 106
SWIDTH 429 0
DWIDTH 12 0
BBX 10 24 0 -6
VVECTOR 5 22
SWIDTH1 0 -1000
DWIDTH1 0 -28
BITMAP 
0040
0040
0000
0000
0000
0040
0040
0040
0040
0040
0040
0080
0080
0080
0080
0080
0080
0100
0100
0100
8200
8200
4400
3800
ENDCHAR
STARTCHAR k
ENCODING 107
SWIDTH 429 0
DWIDTH 12 0
BBX 9 17 2 0
VVECTOR 7 22
SWIDTH1 0 -1000
DWIDTH1 0 -28
BITMAP 
1000
1000
2000
2000
2000
2000
4080
4100
4600
4800
5000
A000
9000
8800
8400
8200
8100
ENDCHAR
STARTCHAR l
ENCODING 108
SWIDTH 286 0
DWIDTH 8 0
BBX 4 18 2 0
VVECTOR 4 22
SWIDTH1 0 -1000
DWIDTH1 0 -28
BITMAP 
10
10
10
20
20
20
20
20
40
40
40
40
40
80
80
80
80
80
ENDCHAR
STARTCHAR m
ENCODING 109
SWIDTH 786 0
DWIDTH 22 0
BBX 19 13 1 0
VVECTOR 11 22
SWIDTH1 0 -1000
DWIDTH1 0 -28
BITMAP 
278000
284380
302440
302820
203020
202020
402020
404020
404020
404020
804040
808040
808040
ENDCHAR
STARTCHAR n
ENCODING 110
SWIDTH 536 0
DWIDTH 15 0
BBX 12 14 1 0
VVECTOR 7 22
SWIDTH1 0 -1000
DWIDTH1 0 -28
BITMAP 
0800
08C0
1320
1410
2810
3010
2010
6010
4010
4010
4010
8020
8020
8020
ENDCHAR
STARTCHAR o
ENCODING 111
SWIDTH 536 0
DWIDTH 15 0
BBX 11 14 2 0
VVECTOR 8 22
SWIDTH1 0 -1000
DWIDTH1 0 -28
BITMAP 
0380
0C40
1020
2020
4020
4020
8020
8020
8020
8040
8040
8080
4300
3C00
ENDCHAR
STARTCHAR p
ENCODING 112
SWIDTH 500 0
DWIDTH 14 0
BBX 13 20 0 -6
VVECTOR 7 22
SWIDTH1 0 -1000
DWIDTH1 0 -28
BITMAP 
0800
08E0
0B10
1408
1808
1008
1008
1008
2008
2010
2010
2020
20C0
2700
4000
4000
4000
4000
8000
8000
ENDCHAR
STARTCHAR q
ENCODING 113
SWIDTH 536 0
DWIDTH 15 0
BBX 12 19 2 -6
VVECTOR 8 22
SWIDTH1 0 -1000
DWIDTH1 0 -28
BITMAP 
0700
1890
2010
4010
4020
8020
8060
8060
80A0
8120
4640
3840
0040
0040
0080
0080
0080
0090
0060
ENDCHAR
STARTCHAR r
ENCODING 114
SWIDTH 464 0
DWIDTH 13 0
BBX 10 14 2 0
VVECTOR 7 22
SWIDTH1 0 -1000
DWIDTH1 0 -28
BITMAP 
4000
2780
2840
3000
2000
2000
4000
4000
4000
4000
8000
8000
8000
8000
ENDCHAR
STARTCHAR s
ENCODING 115
SWIDTH 500 0
DWIDTH 14 0
BBX 10 13 2 0
VVECTOR 7 22
SWIDTH1 0 -1000
DWIDTH1 0 -28
BITMAP 
0F80
3040
4040
8080
8000
7800
0700
0080
0040
0040
8040
6080
1F00
ENDCHAR
STARTCHAR t
ENCODING 116
SWIDTH 429 0
DWIDTH 12 0
BBX 10 18 1 0
VVECTOR 6 22
SWIDTH1 0 -1000
DWIDTH1 0 -28
BITMAP 
0200
0200
0200
0400
05C0
1E00
6400
8400
0800
0800
0800
0800
0800
1000
1000
1000
1000
1000
ENDCHAR
STARTCHAR u
ENCODING 117
SWIDTH 571 0
DWIDTH 16 0
BBX 12 13 2 0
VVECTOR 8 22
SWIDTH1 0 -1000
DWIDTH1 0 -28
BITMAP 
2000
2010
4010
4010
4020
8020
8020
8060
80A0
80A0
8140
4240
3C40
ENDCHAR
STARTCHAR v
ENCODING 118
SWIDTH 500 0
DWIDTH 14 0
BBX 12 13 1 0
VVECTOR 7 22
SWIDTH1 0 -1000
DWIDTH1 0 -28
BITMAP 
0010
8020
8020
4040
4040
2080
2100
1100
1200
0A00
0C00
0400
0400
ENDCHAR
STARTCHAR w
ENCODING 119
SWIDTH 714 0
DWIDTH 20 0
BBX 18 14 1 0
VVECTOR 10 22
SWIDTH1 0 -1000
DWIDTH1 0 -28
BITMAP 
000040
400080
810100
810100
830200
830200
448400
448400
448400
284800
284800
282800
102800
101000
ENDCHAR
STARTCHAR x
ENCODING 120
SWIDTH 500 0
DWIDTH 14 0
BBX 10 14 2 0
VVECTOR 7 22
SWIDTH1 0 -1000
DWIDTH1 0 -28
BITMAP 
0040
8080
4080
2100
1100
1200
0C00
0400
0A00
1200
1100
2100
4080
8040
ENDCHAR
STARTCHAR y
ENCODING 121
SWIDTH 500 0
DWIDTH 14 0
BBX 12 19 1 -5
VVECTOR 7 22
SWIDTH1 0 -1000
DWIDTH1 0 -28
BITMAP 
0010
8010
8020
4020
4040
2040
1080
1080
0900
0500
0200
0300
0400
0800
0800
1000
1000
2000
4000
ENDCHAR
STARTCHAR z
ENCODING 122
SWIDTH 500 0
DWIDTH 14 0
BBX 11 14 1 0
VVECTOR 7 22
SWIDTH1 0 -1000
DWIDTH1 0 -28
BITMAP 
03C0
1C20
6020
0040
0080
0100
0200
0400
0800
1000
2000
4020
81C0
7E00
ENDCHAR
STARTCHAR braceleft
ENCODING 123
SWIDTH 357 0
DWIDTH 10 0
BBX 9 25 1 -4
VVECTOR 6 22
SWIDTH1 0 -1000
DWIDTH1 0 -28
BITMAP 
0180
0200
0400
0800
0800
1000
1000
1000
1000
1000
2000
C000
2000
2000
2000
2000
2000
2000
2000
2000
2000
1000
1000
0800
0700
ENDCHAR
STARTCHAR bar
ENCODING 124
SWIDTH 321 0
DWIDTH 9 0
BBX 4 24 2 -4
VVECTOR 4 22
SWIDTH1 0 -1000
DWIDTH1 0 -28
BITMAP 
10
10
10
10
10
20
20
20
20
20
20
20
40
40
40
40
40
40
80
80
80
80
80
80
ENDCHAR
STARTCHAR braceright
ENCODING 125
SWIDTH 357 0
DWIDTH 10 0
BBX 7 24 1 -3
VVECTOR 5 22
SWIDTH1 0 -1000
DWIDTH1 0 -28
BITMAP 
30
08
04
04
04
04
04
04
04
04
02
04
08
08
08
08
08
08
08
10
10
10
20
C0
ENDCHAR
STARTCHAR asciitilde
ENCODING 126
SWIDTH 571 0
DWIDTH 16 0
BBX 12 3 2 15
VVECTOR 8 22
SWIDTH1 0 -1000
DWIDTH1 0 -28
BITMAP 
3810
4420
83C0
ENDCHAR
STARTCHAR char7F
ENCODING 127
SWIDTH 0 0
DWIDTH 0 0
BBX 0 0 0 -6
VVECTOR 0 -6
SWIDTH1 0 0
DWIDTH1 0 0
BITMAP 
ENDCHAR
STARTCHAR Adieresis
ENCODING 128
SWIDTH 643 0
DWIDTH 18 0
BBX 17 22 1 -1
VVECTOR 10 22
SWIDTH1 0 -1000
DWIDTH1 0 -28
BITMAP 
000880
000000
000200
000500
000900
001100
002200
002200
004200
008200
010400
020400
040400
040700
083C00
17C400
780400
200800
200800
400800
400800
800000
ENDCHAR
STARTCHAR Aring
ENCODING 129
SWIDTH 571 0
DWIDTH 16 0
BBX 15 22 0 0
VVECTOR 8 22
SWIDTH1 0 -1000
DWIDTH1 0 -28
BITMAP 
001C
0022
0022
001C
0000
0018
0024
0044
0044
0084
0104
0208
0408
0808
080E
1078
2F88
F008
4010
4010
8010
8010
ENDCHAR
STARTCHAR Ccedilla
ENCODING 130
SWIDTH 571 0
DWIDTH 16 0
BBX 12 23 2 -5
VVECTOR 8 22
SWIDTH1 0 -1000
DWIDTH1 0 -28
BITMAP 
03C0
0C20
1010
2010
4010
4020
8000
8000
8000
8000
8000
8000
8000
8000
4000
4020
3040
0F80
0200
0100
0100
0200
0C00
ENDCHAR
STARTCHAR Eacute
ENCODING 131
SWIDTH 500 0
DWIDTH 14 0
BBX 10 22 2 0
VVECTOR 7 22
SWIDTH1 0 -1000
DWIDTH1 0 -28
BITMAP 
0100
0200
0400
0000
03C0
0C00
1000
1000
2000
2000
2000
4000
4780
7800
C000
4000
8000
8000
8000
8000
4000
3F80
ENDCHAR
STARTCHAR Ntilde
ENCODING 132
SWIDTH 643 0
DWIDTH 18 0
BBX 16 22 1 -1
VVECTOR 9 22
SWIDTH1 0 -1000
DWIDTH1 0 -28
BITMAP 
0F02
10C4
2038
0000
0801
1402
1402
2202
2204
2204
4104
4104
4104
4088
4088
8088
8048
8048
8028
8028
8010
8000
ENDCHAR
STARTCHAR Odieresis
ENCODING 133
SWIDTH 571 0
DWIDTH 16 0
BBX 13 21 1 0
VVECTOR 8 22
SWIDTH1 0 -1000
DWIDTH1 0 -28
BITMAP 
0210
0000
0000
03C0
0C20
1010
2010
2008
4008
4008
8008
8008
8008
8008
8008
8010
8010
4020
4020
30C0
0F00
ENDCHAR
STARTCHAR Udieresis
ENCODING 134
SWIDTH 643 0
DWIDTH 18 0
BBX 14 21 2 0
VVECTOR 9 22
SWIDTH1 0 -1000
DWIDTH1 0 -28
BITMAP 
0110
0000
1000
2004
2004
4004
4004
4008
4008
8008
8008
8008
8008
8010
8010
8010
8010
4020
4020
30C0
0F00
ENDCHAR
STARTCHAR aacute
ENCODING 135
SWIDTH 571 0
DWIDTH 16 0
BBX 13 20 2 0
VVECTOR 9 22
SWIDTH1 0 -1000
DWIDTH1 0 -28
BITMAP 
0010
0020
0040
0080
0000
0000
03C0
0C08
1008
2010
4010
4010
8020
8020
8060
8060
80A0
4120
4620
3810
ENDCHAR
STARTCHAR agrave
ENCODING 136
SWIDTH 571 0
DWIDTH 16 0
BBX 13 20 2 0
VVECTOR 9 22
SWIDTH1 0 -1000
DWIDTH1 0 -28
BITMAP 
0100
0080
0040
0040
0000
0000
03C0
0C08
1008
2010
4010
4010
8020
8020
8060
8060
80A0
4120
4620
3810
ENDCHAR
STARTCHAR acircumflex
ENCODING 137
SWIDTH 571 0
DWIDTH 16 0
BBX 13 20 2 0
VVECTOR 9 22
SWIDTH1 0 -1000
DWIDTH1 0 -28
BITMAP 
0180
0240
0420
0810
0000
0000
03C0
0C08
1008
2010
4010
4010
8020
8020
8060
8060
80A0
4120
4620
3810
ENDCHAR
STARTCHAR adieresis
ENCODING 138
SWIDTH 571 0
DWIDTH 16 0
BBX 13 17 2 0
VVECTOR 9 22
SWIDTH1 0 -1000
DWIDTH1 0 -28
BITMAP 
0110
0000
0000
03C0
0C08
1008
2010
4010
4010
8020
8020
8060
8060
80A0
4120
4620
3810
ENDCHAR
STARTCHAR atilde
ENCODING 139
SWIDTH 571 0
DWIDTH 16 0
BBX 13 19 2 0
VVECTOR 9 22
SWIDTH1 0 -1000
DWIDTH1 0 -28
BITMAP 
0008
0E10
11E0
2000
0000
03C0
0C08
1008
2010
4010
4010
8020
8020
8060
8060
80A0
4120
4620
3810
ENDCHAR
STARTCHAR aring
ENCODING 140
SWIDTH 571 0
DWIDTH 16 0
BBX 13 21 2 0
VVECTOR 9 22
SWIDTH1 0 -1000
DWIDTH1 0 -28
BITMAP 
00E0
0110
0210
0210
01E0
0000
0000
03C0
0C08
1008
2010
4010
4010
8020
8020
8060
8060
80A0
4120
4620
3810
ENDCHAR
STARTCHAR ccedilla
ENCODING 141
SWIDTH 500 0
DWIDTH 14 0
BBX 10 18 2 -4
VVECTOR 7 22
SWIDTH1 0 -1000
DWIDTH1 0 -28
BITMAP 
0700
1880
2040
4040
4000
8000
8000
8000
8000
8000
8000
8080
4100
3E00
0800
0400
0400
1800
ENDCHAR
STARTCHAR eacute
ENCODING 142
SWIDTH 500 0
DWIDTH 14 0
BBX 11 19 1 0
VVECTOR 7 22
SWIDTH1 0 -1000
DWIDTH1 0 -28
BITMAP 
0180
0200
0400
0000
0000
0F80
1040
2020
2020
4040
4180
4E00
F000
4000
4000
4000
4040
2180
1E00
ENDCHAR
STARTCHAR egrave
ENCODING 143
SWIDTH 500 0
DWIDTH 14 0
BBX 11 19 1 0
VVECTOR 7 22
SWIDTH1 0 -1000
DWIDTH1 0 -28
BITMAP 
0C00
0200
0100
0000
0000
0F80
1040
2020
2020
4040
4180
4E00
F000
4000
4000
4000
4040
2180
1E00
ENDCHAR
STARTCHAR ecircumflex
ENCODING 144
SWIDTH 500 0
DWIDTH 14 0
BBX 11 20 1 0
VVECTOR 7 22
SWIDTH1 0 -1000
DWIDTH1 0 -28
BITMAP 
0300
0480
0880
1040
0000
0000
0F80
1040
2020
2020
4040
4180
4E00
F000
4000
4000
4000
4040
2180
1E00
ENDCHAR
STARTCHAR edieresis
ENCODING 145
SWIDTH 500 0
DWIDTH 14 0
BBX 11 17 1 0
VVECTOR 7 22
SWIDTH1 0 -1000
DWIDTH1 0 -28
BITMAP 
0840
0000
0000
0F80
1040
2020
2020
4040
4180
4E00
F000
4000
4000
4000
4040
2180
1E00
ENDCHAR
STARTCHAR iacute
ENCODING 146
SWIDTH 357 0
DWIDTH 10 0
BBX 6 20 3 0
VVECTOR 6 22
SWIDTH1 0 -1000
DWIDTH1 0 -28
BITMAP 
04
08
10
20
00
00
20
20
20
20
40
40
40
40
40
80
80
80
80
80
ENDCHAR
STARTCHAR igrave
ENCODING 147
SWIDTH 357 0
DWIDTH 10 0
BBX 4 20 3 0
VVECTOR 5 22
SWIDTH1 0 -1000
DWIDTH1 0 -28
BITMAP 
40
20
10
10
00
00
20
20
20
20
40
40
40
40
40
80
80
80
80
80
ENDCHAR
STARTCHAR icircumflex
ENCODING 148
SWIDTH 357 0
DWIDTH 10 0
BBX 7 20 2 0
VVECTOR 6 22
SWIDTH1 0 -1000
DWIDTH1 0 -28
BITMAP 
18
24
42
82
00
00
10
10
10
10
20
20
20
20
20
40
40
40
40
40
ENDCHAR
STARTCHAR idieresis
ENCODING 149
SWIDTH 357 0
DWIDTH 10 0
BBX 6 18 3 0
VVECTOR 6 22
SWIDTH1 0 -1000
DWIDTH1 0 -28
BITMAP 
44
00
00
00
20
20
20
20
40
40
40
40
40
80
80
80
80
80
ENDCHAR
STARTCHAR ntilde
ENCODING 150
SWIDTH 500 0
DWIDTH 14 0
BBX 12 19 1 0
VVECTOR 7 22
SWIDTH1 0 -1000
DWIDTH1 0 -28
BITMAP 
1C10
2220
41C0
0000
0000
1000
1380
2440
2820
3020
6020
6020
4020
4020
4020
8020
8040
8040
8040
ENDCHAR
STARTCHAR oacute
ENCODING 151
SWIDTH 500 0
DWIDTH 14 0
BBX 11 19 1 0
VVECTOR 7 22
SWIDTH1 0 -1000
DWIDTH1 0 -28
BITMAP 
0080
0300
0400
0800
0000
0380
0C40
1020
2020
4020
4020
8020
8020
8020
8040
8040
8080
4300
3C00
ENDCHAR
STARTCHAR ograve
ENCODING 152
SWIDTH 500 0
DWIDTH 14 0
BBX 11 20 1 0
VVECTOR 7 22
SWIDTH1 0 -1000
DWIDTH1 0 -28
BITMAP 
0400
0200
0100
0080
0000
0000
0380
0C40
1020
2020
4020
4020
8020
8020
8020
8040
8040
8080
4300
3C00
ENDCHAR
STARTCHAR ocircumflex
ENCODING 153
SWIDTH 500 0
DWIDTH 14 0
BBX 11 19 1 0
VVECTOR 7 22
SWIDTH1 0 -1000
DWIDTH1 0 -28
BITMAP 
0300
0480
0840
0000
0000
0380
0C40
1020
2020
4020
4020
8020
8020
8020
8040
8040
8080
4300
3C00
ENDCHAR
STARTCHAR odieresis
ENCODING 154
SWIDTH 500 0
DWIDTH 14 0
BBX 11 17 1 0
VVECTOR 7 22
SWIDTH1 0 -1000
DWIDTH1 0 -28
BITMAP 
0440
0000
0000
0380
0C40
1020
2020
4020
4020
8020
8020
8020
8040
8040
8080
4300
3C00
ENDCHAR
STARTCHAR otilde
ENCODING 155
SWIDTH 500 0
DWIDTH 14 0
BBX 12 19 1 0
VVECTOR 7 22
SWIDTH1 0 -1000
DWIDTH1 0 -28
BITMAP 
1C10
2220
41C0
0000
0000
0380
0C40
1020
2020
4020
4020
8020
8020
8020
8040
8040
8080
4300
3C00
ENDCHAR
STARTCHAR uacute
ENCODING 156
SWIDTH 571 0
DWIDTH 16 0
BBX 12 19 2 0
VVECTOR 8 22
SWIDTH1 0 -1000
DWIDTH1 0 -28
BITMAP 
0040
0080
0100
0200
0000
0000
2000
2010
4010
4010
4020
8020
8020
8060
80A0
80A0
8140
4240
3C40
ENDCHAR
STARTCHAR ugrave
ENCODING 157
SWIDTH 571 0
DWIDTH 16 0
BBX 12 19 2 0
VVECTOR 8 22
SWIDTH1 0 -1000
DWIDTH1 0 -28
BITMAP 
0400
0200
0100
0080
0000
0000
2000
2010
4010
4010
4020
8020
8020
8060
80A0
80A0
8140
4240
3C40
ENDCHAR
STARTCHAR ucircumflex
ENCODING 158
SWIDTH 571 0
DWIDTH 16 0
BBX 12 19 2 0
VVECTOR 8 22
SWIDTH1 0 -1000
DWIDTH1 0 -28
BITMAP 
0180
0240
0440
0820
0000
0000
2000
2010
4010
4010
4020
8020
8020
8060
80A0
80A0
8140
4240
3C40
ENDCHAR
STARTCHAR udieresis
ENCODING 159
SWIDTH 571 0
DWIDTH 16 0
BBX 12 16 2 0
VVECTOR 8 22
SWIDTH1 0 -1000
DWIDTH1 0 -28
BITMAP 
0440
0000
0000
2000
2010
4010
4010
4020
8020
8020
8060
80A0
80A0
8140
4240
3C40
ENDCHAR
STARTCHAR degree
ENCODING 161
SWIDTH 429 0
DWIDTH 12 0
BBX 7 6 3 11
VVECTOR 7 22
SWIDTH1 0 -1000
DWIDTH1 0 -28
BITMAP 
3C
42
82
82
84
78
ENDCHAR
STARTCHAR cent
ENCODING 162
SWIDTH 500 0
DWIDTH 14 0
BBX 10 19 2 -3
VVECTOR 7 22
SWIDTH1 0 -1000
DWIDTH1 0 -28
BITMAP 
0200
0200
0700
1A80
2240
4240
4200
8400
8400
8400
8400
8400
8800
8880
4900
3E00
0800
0800
0800
ENDCHAR
STARTCHAR bullet
ENCODING 165
SWIDTH 571 0
DWIDTH 16 0
BBX 11 12 2 2
VVECTOR 8 22
SWIDTH1 0 -1000
DWIDTH1 0 -28
BITMAP 
0F80
3FC0
7FC0
7FE0
FFE0
FFE0
FFE0
FFE0
FFC0
FFC0
7F80
3E00
ENDCHAR
STARTCHAR acute
ENCODING 171
SWIDTH 286 0
DWIDTH 8 0
BBX 4 4 2 14
VVECTOR 4 22
SWIDTH1 0 -1000
DWIDTH1 0 -28
BITMAP 
10
20
40
80
ENDCHAR
STARTCHAR dieresis
ENCODING 172
SWIDTH 357 0
DWIDTH 10 0
BBX 6 1 2 16
VVECTOR 5 22
SWIDTH1 0 -1000
DWIDTH1 0 -28
BITMAP 
84
ENDCHAR
STARTCHAR Oslash
ENCODING 175
SWIDTH 571 0
DWIDTH 16 0
BBX 14 20 0 -1
VVECTOR 7 22
SWIDTH1 0 -1000
DWIDTH1 0 -28
BITMAP 
0004
01E8
0610
0818
1028
1044
2084
2104
4104
4204
4204
4404
4804
5008
5008
2010
2010
5860
4780
8000
ENDCHAR
STARTCHAR oslash
ENCODING 191
SWIDTH 500 0
DWIDTH 14 0
BBX 12 16 2 -1
VVECTOR 8 22
SWIDTH1 0 -1000
DWIDTH1 0 -28
BITMAP 
0010
03A0
0C40
1040
20A0
4120
4220
8220
8420
8820
8840
9040
A080
4300
BC00
8000
ENDCHAR
STARTCHAR questiondown
ENCODING 192
SWIDTH 500 0
DWIDTH 14 0
BBX 10 18 2 0
VVECTOR 7 22
SWIDTH1 0 -1000
DWIDTH1 0 -28
BITMAP 
0200
0200
0000
0000
0400
0400
0800
0800
1000
2000
4000
4000
8040
8040
8080
8080
4300
3C00
ENDCHAR
STARTCHAR exclamdown
ENCODING 193
SWIDTH 286 0
DWIDTH 8 0
BBX 4 18 3 0
VVECTOR 5 22
SWIDTH1 0 -1000
DWIDTH1 0 -28
BITMAP 
10
10
00
00
20
20
20
20
40
40
40
40
40
80
80
80
80
80
ENDCHAR
STARTCHAR ellipsis
ENCODING 201
SWIDTH 714 0
DWIDTH 20 0
BBX 13 2 4 0
VVECTOR 11 22
SWIDTH1 0 -1000
DWIDTH1 0 -28
BITMAP 
8208
8208
ENDCHAR
STARTCHAR uni00A0
ENCODING 202
SWIDTH 571 0
DWIDTH 16 0
BBX 0 0 16 -6
VVECTOR 16 -6
SWIDTH1 0 0
DWIDTH1 0 0
BITMAP 
ENDCHAR
STARTCHAR Agrave
ENCODING 203
SWIDTH 643 0
DWIDTH 18 0
BBX 17 23 1 -1
VVECTOR 10 22
SWIDTH1 0 -1000
DWIDTH1 0 -28
BITMAP 
000200
000100
000080
000000
000600
000A00
001200
002200
002200
004200
008200
010400
020400
040400
040700
083C00
17C400
780400
200800
200800
400800
400800
800000
ENDCHAR
STARTCHAR Atilde
ENCODING 204
SWIDTH 714 0
DWIDTH 20 0
BBX 19 23 1 -1
VVECTOR 11 22
SWIDTH1 0 -1000
DWIDTH1 0 -28
BITMAP 
007020
008840
010780
000000
000600
000A00
001200
002200
002200
004200
008200
010400
020400
040400
040700
083C00
17C400
780400
200800
200800
400800
400800
800000
ENDCHAR
STARTCHAR Otilde
ENCODING 205
SWIDTH 571 0
DWIDTH 16 0
BBX 13 22 1 0
VVECTOR 8 22
SWIDTH1 0 -1000
DWIDTH1 0 -28
BITMAP 
0E00
1108
20F0
0000
03C0
0C20
1010
2010
2008
4008
4008
8008
8008
8008
8008
8008
8010
8010
4020
4020
30C0
0F00
ENDCHAR
STARTCHAR endash
ENCODING 208
SWIDTH 429 0
DWIDTH 12 0
BBX 8 1 2 7
VVECTOR 6 22
SWIDTH1 0 -1000
DWIDTH1 0 -28
BITMAP 
FF
ENDCHAR
STARTCHAR emdash
ENCODING 209
SWIDTH 643 0
DWIDTH 18 0
BBX 14 1 2 7
VVECTOR 9 22
SWIDTH1 0 -1000
DWIDTH1 0 -28
BITMAP 
FFFC
ENDCHAR
STARTCHAR quotedblleft
ENCODING 210
SWIDTH 500 0
DWIDTH 14 0
BBX 9 5 2 15
VVECTOR 7 22
SWIDTH1 0 -1000
DWIDTH1 0 -28
BITMAP 
2180
4300
4200
8400
8400
ENDCHAR
STARTCHAR quotedblright
ENCODING 211
SWIDTH 500 0
DWIDTH 14 0
BBX 9 6 3 14
VVECTOR 8 22
SWIDTH1 0 -1000
DWIDTH1 0 -28
BITMAP 
0080
2080
2080
2100
4100
8200
ENDCHAR
STARTCHAR quoteleft
ENCODING 212
SWIDTH 286 0
DWIDTH 8 0
BBX 3 5 3 14
VVECTOR 5 22
SWIDTH1 0 -1000
DWIDTH1 0 -28
BITMAP 
80
80
40
40
20
ENDCHAR
STARTCHAR quoteright
ENCODING 213
SWIDTH 286 0
DWIDTH 8 0
BBX 3 5 2 14
VVECTOR 4 22
SWIDTH1 0 -1000
DWIDTH1 0 -28
BITMAP 
20
20
40
40
80
ENDCHAR
STARTCHAR ydieresis
ENCODING 216
SWIDTH 571 0
DWIDTH 16 0
BBX 12 22 2 -5
VVECTOR 8 22
SWIDTH1 0 -1000
DWIDTH1 0 -28
BITMAP 
1080
0000
0000
0010
8010
8020
4020
4040
2040
1080
1080
0900
0500
0200
0300
0400
0800
0800
1000
1000
2000
4000
ENDCHAR
STARTCHAR missing
ENCODING -1
SWIDTH 571 0
DWIDTH 16 0
BBX 13 16 1 0
VVECTOR 7 22
SWIDTH1 0 -1000
DWIDTH1 0 -28
BITMAP 
FFF8
8008
8008
8008
8008
8008
8008
8008
8008
8008
8008
8008
8008
8008
8008
FFF8
ENDCHAR
ENDFONT
